<?xml version="1.0" encoding="iso-8859-1"?>
<!-- Uploaded to: SVG Repo, www.svgrepo.com, Generator: SVG Repo Mixer Tools -->
<svg version="1.1" id="Layer_1" xmlns="http://www.w3.org/2000/svg" xmlns:xlink="http://www.w3.org/1999/xlink" 
	 viewBox="0 0 490 490" xml:space="preserve">
<g>
	<g id="XMLID_40_">
		<g>
			<path style="fill:#FFD248;" d="M205,345v-50.703C144.395,276.904,100,221.201,100,155c0-80.098,64.902-145,145-145
				s145,64.902,145,145c0,64.395-42.002,118.799-100,137.803V345H205z"/>
			<rect x="225" y="445" style="fill:#E7ECED;" width="40" height="35"/>
			<polygon style="fill:#AFB6BB;" points="310,345 310,445 265,445 225,445 180,445 180,345 205,345 290,345 			"/>
		</g>
		<path style="fill:#231F20;" d="M400,155C400,69.533,330.467,0,245,0S90,69.533,90,155c0,34.333,11.008,66.849,31.835,94.033
			c18.594,24.27,44.361,42.744,73.165,52.599V335h-15c-5.523,0-10,4.478-10,10v100c0,5.522,4.477,10,10,10h35v25
			c0,5.522,4.477,10,10,10h40c5.522,0,10-4.478,10-10v-25h35c5.522,0,10-4.478,10-10V345c0-5.522-4.478-10-10-10h-10v-35.129
			C360.114,277.045,400,219.721,400,155z M255,470h-20v-15h20V470z M300,435H190v-15h90v-20h-90v-10h90v-20h-90v-15h110V435z
			 M255,335V119.143l27.071-27.071l-14.143-14.143L245,100.857l-22.929-22.929l-14.143,14.143L235,119.143V335h-20v-40.703
			c0-4.461-2.954-8.382-7.241-9.612c-27.621-7.927-52.498-24.907-70.048-47.814C119.582,213.207,110,184.896,110,155
			c0-74.439,60.561-135,135-135s135,60.561,135,135c0,58.491-37.42,110.051-93.113,128.3c-4.108,1.347-6.887,5.18-6.887,9.503V335
			H255z"/>
	</g>
</g>
</svg>